<?xml version="1.0" encoding="utf-8"?>
<svg x="466.297pt" y="375.222pt" width="250pt" height="250pt" viewBox="466.297 375.222 250 250" xmlns="http://www.w3.org/2000/svg" xmlns:xlink="http://www.w3.org/1999/xlink">
  <!--Generated by AMDN-->
  <g id="Layer 1">
    <g id="Layer 2">
      <g id="Path">
        <path id="Path 0" style="fill:#ff0808;fill-opacity:1;fill-rule:evenodd;opacity:1;stroke:none;" d="M591.297,394.861 C646.492,394.861,683.308,439.512,683.308,478.053 C683.308,561.428,591.297,604.764,591.297,604.764 C591.297,604.764,499.286,561.428,499.286,478.053 C499.286,439.512,534.622,394.861,591.297,394.861 z"/>
        <path id="Path 1" style="fill:#ff0808;fill-opacity:1;fill-rule:nonzero;opacity:1;stroke:none;" d="M591.297,401.269 C617.134,401.283,638.46,411.665,653.487,426.552 C668.513,441.422,676.943,460.83,676.9,478.053 C676.9,478.057,676.9,478.061,676.9,478.064 C676.9,478.074,676.9,478.083,676.9,478.091 C677.051,504.633,666.82,528.472,650.645,548.965 C634.493,569.426,612.405,586.335,589.625,598.402 C589.195,598.631,588.764,598.857,588.333,599.083 C590.309,599.083,592.284,599.083,594.26,599.083 C571.244,587.085,548.824,570.131,532.408,549.544 C515.969,528.925,505.542,504.883,505.694,478.091 C505.694,478.083,505.694,478.074,505.694,478.066 C505.694,478.061,505.694,478.057,505.694,478.053 C505.659,460.743,513.763,441.363,528.578,426.527 C543.403,411.677,564.669,401.291,591.297,401.269 z M591.297,388.453 C561.25,388.431,536.512,400.369,519.499,417.481 C502.476,434.606,492.913,456.822,492.877,478.053 C492.877,478.04,492.877,478.027,492.877,478.014 C492.686,508.287,504.581,535.247,522.391,557.539 C540.224,579.864,563.983,597.734,588.333,610.446 C589.321,610.961,590.308,611.476,591.295,611.992 C592.283,611.476,593.272,610.961,594.26,610.446 C594.716,610.207,595.172,609.968,595.629,609.727 C619.725,596.941,643.147,579.11,660.702,556.911 C678.234,534.743,689.906,508.003,689.717,478.014 C689.717,478.027,689.717,478.04,689.717,478.053 C689.674,456.734,679.696,434.547,662.514,417.456 C645.335,400.383,620.655,388.439,591.297,388.453 z"/>
      </g>
      <g id="Path">
        <path id="Path 2" style="fill:#ffffff;fill-opacity:1;fill-rule:evenodd;opacity:1;stroke:none;" d="M591.297,411.567 C632.275,411.567,665.493,444.786,665.493,485.764 C665.493,526.741,632.275,559.961,591.297,559.961 C550.32,559.961,517.101,526.741,517.101,485.764 C517.101,444.786,550.32,411.567,591.297,411.567 z"/>
      </g>
      <g id="Path">
        <path id="Path 3" style="fill:#fe0807;fill-opacity:1;fill-rule:evenodd;opacity:1;stroke:none;" d="M591.297,441.716 C615.343,441.716,634.835,461.209,634.835,485.255 C634.835,509.301,615.343,528.793,591.297,528.793 C567.251,528.793,547.758,509.301,547.758,485.255 C547.758,461.209,567.251,441.716,591.297,441.716 z"/>
      </g>
    </g>
  </g>
</svg>
